<svg id="Layer_1" enable-background="new 0 0 509.62 509.62" height="512" viewBox="0 0 509.62 509.62" width="512" xmlns="http://www.w3.org/2000/svg"><g><path d="m509.62 254.81c0 30.296-5.287 59.357-14.989 86.311-35.365 98.249-124.689 144.391-235.12 144.391-140.728 0-236.688-89.947-236.688-230.675 0-38.011-14.499-74.104.423-106.504 40.325-87.555 128.847-148.333 231.564-148.333 140.727 0 254.81 114.082 254.81 254.81z" fill="#ffe046"/><path d="m459.611 406.407h.014c3.553-4.792 7.151-10.186 7.778-11.107v-.014c1.221-1.844 2.422-3.703 3.596-5.58v.003c.677-1.083 1.357-2.165 2.018-3.259 9.149-15.133 17.121-32.055 23.034-49.406v-.011c-.002-5.09-4.129-9.215-9.219-9.215h-4.114c-8.459 0-15.316-6.857-15.316-15.316 0-8.459 6.857-15.316 15.316-15.316h2.142c6.18 0 11.19-5.01 11.19-11.19v-36.252c0-6.18-5.01-11.19-11.19-11.19h-6.269c-6.18 0-11.19-5.01-11.19-11.19 0-6.18-5.01-11.19-11.19-11.19h-12.811c-.725 0-1.415-.313-1.892-.859l-.038-.044c-.903-1.034-.811-2.593.202-3.52 2.236-2.048 5.332-4.37 7.481-5.852 13.644-9.41 22.592-25.141 22.592-42.969 0-28.817-23.361-52.177-52.177-52.177-67.681.366-69.209-.558-76.897.52-.988.289-13.661 1.243-26.017 11.512-6.489-5.129-13.562-9.703-21.193-13.605-1.658-.848-3.62-.868-5.319-.105l-.089.04c-2.568 1.153-5.61.458-7.372-1.738-9.095-11.338-21.052-20.575-35.279-26.451-3.427-1.415-7.339-1.014-10.417 1.052l-.143.096c-3.553 2.384-8.181 2.551-11.843.336-12.72-7.693-27.473-10.9-40.875-6.237-15.366 5.346-25.701 19.907-30.175 36.516-7.627-.531-13.632.126-13.632.126-12.221 16.585-17.806 36.007-17.284 55.12-3.449.694-6.098 1.353-8.81 2.123-6.74 13.771-11.217 29.697-12.457 46.118h-2.66c-3.251-16.25-4.967-33.054-4.967-50.26 0-.495.004-.994.011-1.496.609-40.066-54.137-52.479-70.897-16.082-14.462 31.405-22.699 66.192-23.226 102.732-2.031 140.856 113.612 258.387 254.482 258.55 83.63.096 158.383-40.196 205.102-103.213zm-51.217-19.956v16.74c0 1.776 1.44 3.216 3.216 3.216 3.769 0 4.47 5.395.819 6.331-49.415 12.673-102.694 10.452-152.082-7.857-9.933-3.682-7.253-18.43 3.34-18.43z" fill="#fcb54c"/><g><g><path d="m422.177 203.204c15.445-9.06 25.822-25.827 25.822-45.027 0-28.817-23.361-52.177-52.177-52.177h-69.589c-3.317 0-6.558.323-9.703.915v96.289z" fill="#a55a3c"/><g fill="#783c28"><ellipse cx="345.906" cy="152.266" rx="8.401" ry="5.596"/><path d="m370.361 197.746c-7.268 0-14.188-1.487-20.474-4.174-6.26-2.675-7.319-10.876-2.376-15.557 1.292-1.223 2.087-2.717 2.087-4.486 0-4.812-6.774-8.713-15.13-8.713-1.12 0-2.211.07-3.26.204-5.594.712-10.744-3.157-11.905-8.675-.016-.075-.031-.149-.047-.224-.955-4.642 1.143-9.43 5.283-11.736 1.062-.592 1.773-1.405 1.773-2.447 0-.881-.493-1.587-1.258-2.134-3.766-2.694-5.346-7.556-3.778-11.912 1.961-5.447 4.801-10.473 8.351-14.908 2.253-2.814.211-6.985-3.394-6.985-28.817 0-52.177 23.361-52.177 52.177 0 28.817 23.361 52.177 52.177 52.177h69.589c5.958 0 11.68-1.001 17.011-2.842s3.941-9.766-1.699-9.766h-40.773z"/><ellipse cx="406.827" cy="135.844" rx="8.092" ry="4.73"/><ellipse cx="369.553" cy="118.761" rx="5.764" ry="3.505"/><ellipse cx="397.442" cy="173.529" rx="7.437" ry="5.627"/></g></g><g><path d="m230.737 113.002c9.58 27.535-4.976 57.623-32.511 67.202-27.535 9.58-57.623-4.976-67.202-32.511-9.58-27.535 1.819-66.695 29.354-76.275s60.78 14.049 70.359 41.584z" fill="#a0c83d"/><path d="m177.876 178.664c7.148-6.705 7.148-6.705 3.843-17.619s.317-11.559 9.71-22.194c6.522-7.385 6.51-4.94.048-25.784s26.753-38.935 26.753-38.935c46.506 15.786 71.409 66.283 55.623 112.789-11.43 33.673-41.058 56.02-74.192 59.797.001.001-35.819-54.89-21.785-68.054z" fill="#94b938"/><path d="m209.439 170.759c-9.698-1.415-9.698-1.415-13.225-12.259s-6.868-9.303-20.654-12.66c-9.573-2.331-8.165-.332-14.779-21.128-6.614-20.797-44.208-16.652-44.208-16.652-29.134 39.538-20.7 95.207 18.838 124.34 28.627 21.094 65.712 22.494 95.057 6.651 0 .001-1.99-65.513-21.029-68.292z" fill="#489160"/><path d="m192.893 245.488c11.412-8.322 11.412-8.322 8.621-24.516s2.503-16.476 17.821-30.02c10.637-9.405 10.186-5.91 4.641-36.867s45.165-50.94 45.165-50.94c63.712 30.823 90.375 107.458 59.552 171.171-22.317 46.131-68.652 72.839-116.709 72.366 0-.001-41.495-84.856-19.091-101.194z" fill="#489160"/><path d="m238.613 229.581c-14.113.558-14.113.558-21.976-13.871-7.863-14.43-12.189-11.364-32.606-12.476-14.178-.771-11.655 1.689-26.522-26.025s-67.03-11.906-67.03-11.906c-30.823 63.712 10.658 126.941 74.371 157.764 46.131 22.317 84.219 27.904 121.605-2.295-.001 0-20.135-92.287-47.842-91.191z" fill="#a0c83d"/><path d="m207.264 306.791c-43.834-21.206-70.128-64.096-72.232-109.544-1.043-22.524-22.675-38.305-44.326-32.01-.15.044-.227.067-.227.067-30.823 63.712-4.16 140.348 59.552 171.171 46.131 22.317 99.038 14.498 136.423-15.702 0 0-.254-1.164-.741-3.216-25.732 4.639-53.111 1.492-78.449-10.766z" fill="#489160"/></g><g><path d="m296.233 246.696c-1.246 8.79.353 17.749 4.324 25.69l17.84 35.676c20.944 19.001 52.338 24.09 79.037 10.212 33.237-17.277 46.896-58.331 30.637-92.078-10.852-22.524-32.152-36.509-55.2-39.062l-52.518 26.263c-12.855 6.429-21.95 18.649-24.056 32.867-.022.144-.043.288-.064.432z" fill="#ff640a"/><path d="m333.604 299.697c-7.234-14.466-8.963-30.245-5.985-44.957 1.004-4.959 5.701-8.28 10.725-7.679.095.011.19.023.285.034 6.02.709 9.928 6.702 8.17 12.502-3.476 11.471-7.148 27.743-.906 30.113 4.451 1.69 9.823-5.253 14.357-13.324 5.7-10.146 18.552-13.64 28.604-7.776 7.996 4.665 16.144 7.932 19.127 4.222 2.839-3.531-1.502-10.273-7.336-16.782-8.209-9.158-7.525-23.176 1.535-31.493 6.44-5.911 11.416-12.198 8.934-15.989-3.886-5.937-20.699 2.438-31.123 8.446-4.292 2.474-9.782.401-11.351-4.298-.026-.077-.052-.154-.078-.232-1.371-4.089.797-8.536 4.877-9.935.13-.045.26-.089.39-.133 8.08-2.717 6.636-14.546-1.848-15.376-12.838-1.257-26.181 1.032-38.537 7.366-33.837 17.345-47.541 59.178-30.542 93.191 4.544 9.091 10.806 16.755 18.195 22.795 7.003 5.723 16.753-2.306 12.667-10.374-.053-.108-.107-.214-.16-.321z" fill="#e04955"/><path d="m359.413 275.969.832 1.663c8.89-6.943 18.593-32.841 18.593-32.841s31.513 25.561 38.069 17.405c6.556-8.157-25.183-33.436-25.183-33.436s25.805-16.73 28.699-26.837l-19.797 9.9c-5.395 2.698-10.039-1.368-10.833-5.946-5.406 3.077-9.335 5.674-9.335 5.674s-5.036-18.852-11.492-29.494c-2.855 1.428-4.616 4.383-4.512 7.573.209 6.416.362 14.169.462 20.282.096 5.889-4.138 10.951-9.951 11.896-7.497 1.22-17.532 3.167-24.175 5.69-2.105.8-3.065 3.233-2.058 5.247 11.817 3.901 30.875 4.746 30.875 4.746s-1.085 2.82-2.464 6.997l-.017.052c-3.418 10.366-2.596 21.665 2.287 31.429z" fill="#a0c83d"/><g fill="#94b938"><g><path d="m368.395 214.682c-2.397-11.54-4.862-28.897 1.321-31.343-3.049-5.407-6.458-9.162-9.827-8.246-10.098 2.745.72 41.853.72 41.853s-40.519-2.156-41.029 8.296c-.171 3.507 4.281 6.038 10.27 7.855.757-6.725 18.457-8.074 30.351-8.216 5.332-.064 9.278-4.98 8.194-10.199z"/><path d="m401.395 213.215c5.368-2.994 11.896-6.268 17.464-7.991 1.783-2.821 2.435-5.376 1.18-7.293-4.147-6.336-23.016 3.627-33.13 9.619.023.067.047.133.07.2 2.066 5.912 8.947 8.515 14.416 5.465z"/><path d="m357.355 244.512c-.07-.008-.141-.017-.211-.026-3.675 11.127-9.439 31.887-2.324 34.588 2.178.827 4.577-.417 6.991-2.846.48-5.791 2.264-12.851 4.03-18.733 1.81-6.033-2.232-12.231-8.486-12.983z"/></g><path d="m409.444 185.043c.04-.027-.011-.008-.051.006-.036.011-.079.027-.132.049l-.305.125c-9.725 4.086-20.507 14.084-26.267 26.832-1.813 4.126-3.166 8.521-4.016 13.076l-.005.029c-.253 1.353-1.554 2.245-2.907 1.993-1.21-.226-2.05-1.291-2.035-2.481.062-4.993.686-10.043 1.914-15.013 1.271-4.954 3.137-9.824 5.626-14.408 8.226-15.229 20.897-23.121 20.954-23.17l.265-.164c.092-.056.173-.107.347-.201 3.68-1.826 8.144-.323 9.97 3.357 1.825 3.68.322 8.144-3.358 9.97z"/></g></g><g><circle cx="281.623" cy="315.124" fill="#e04955" r="66.576"/><path d="m256.151 292.355c23.878-4.717 45.716 14.773 44.266 39.069-.294 4.92-.04 9.867.764 14.747 2.733 16.604 24.287 21.769 34.218 8.185.062-.084.123-.169.185-.254 0 .007.001.013.001.02 17.006-23.472 16.507-54.896.254-77.653-.004.002-.007.004-.011.006-2.79-3.906-6.034-7.577-9.757-10.915-27.374-24.548-69.465-22.258-94.013 5.115-.164.183-.327.367-.489.552-9.953 11.343 1.667 28.317 15.948 23.442 2.788-.952 5.67-1.728 8.634-2.314z" fill="#ce4529"/></g><g><g><path d="m98.124 211.422h35.333v190.234h-35.333z" fill="#a55a3c"/><path d="m101.083 381.7v-170.278h-26.635v190.234h59.008v-19.956z" fill="#783c28"/><path d="m408.518 211.422h35.141v190.234h-35.141z" fill="#a55a3c"/><path d="m414.155 381.7v-170.278h-29.504v190.234h59.008v-19.956z" fill="#783c28"/></g><path d="m46.712 241.085h425.596v51.349h-425.596z" fill="#a55a3c"/><path d="m46.712 330.218h425.596v51.482h-425.596z" fill="#a55a3c"/><g fill="#fff5aa"><path d="m46.712 323.067h425.596v9.161h-425.596z"/><path d="m46.712 233.802h425.596v9.161h-425.596z"/><circle cx="88.427" cy="262.056" r="4.758"/><circle cx="116.166" cy="262.056" r="4.758"/><circle cx="88.427" cy="352.741" r="4.758"/><circle cx="116.166" cy="352.741" r="4.758"/><circle cx="402.09" cy="262.056" r="4.758"/><circle cx="429.829" cy="262.056" r="4.758"/><circle cx="402.09" cy="352.741" r="4.758"/><circle cx="429.829" cy="352.741" r="4.758"/></g></g></g><g><path d="m88.096 485.512h51.871c34.282-13.309 58.461-46.864 57.848-85.989-.763-48.707-40.569-88.473-89.277-89.189-32.51-.478-61.165 16.161-77.54 41.484v76.36c0 18.691 8.924 36.378 24.236 47.097.155.109.311.217.467.325 9.5 6.56 20.85 9.912 32.395 9.912z" fill="#ff640a"/><path d="m139.083 462.959c-21.034 0-40.391-7.166-55.771-19.188-5.184-4.052-6.314-11.446-2.694-16.941.069-.104.137-.208.205-.311 4.326-6.589 13.569-7.649 19.294-2.231 11.32 10.715 28.11 24.45 34.497 18.569 4.554-4.194-.397-14.48-7.147-24.448-8.486-12.531-5.075-29.511 7.593-37.792 10.076-6.587 18.616-14.163 16.035-19.791-2.456-5.355-12.822-4.228-23.787-1.228-15.427 4.221-31.334-4.727-35.736-20.103-3.129-10.929-7.548-20.373-13.401-19.691-9.165 1.067-9.204 25.493-8.279 41.111.381 6.431-5.223 11.611-11.601 10.702-.104-.015-.209-.03-.315-.045-5.554-.784-9.465-5.892-8.719-11.451.024-.177.048-.354.073-.531 1.539-10.978-13.058-16.179-18.959-6.794-8.929 14.201-14.027 31.052-13.847 49.107.494 49.445 41.179 89.715 90.626 89.727 13.217.003 25.773-2.823 37.096-7.905 10.73-4.816 7.062-20.826-4.699-20.767-.153.001-.308.001-.464.001z" fill="#e04955"/><path d="m126.497 419.14h2.418c-2.904-14.378-27.384-40.727-27.384-40.727s48.06-21.786 42.386-34.156-53.538 9.843-53.538 9.843-4.45-39.745-14.522-48.99v28.785c0 7.844-7.43 10.88-13.217 9.141.435 8.077 1.17 14.157 1.17 14.157s-24.856-5.107-40.988-3.789c0 4.151 2.413 7.918 6.184 9.652 7.585 3.489 16.691 7.821 23.859 11.26 6.905 3.313 10.33 11.182 8.049 18.493-2.942 9.429-6.514 22.234-7.443 31.428-.294 2.913 1.978 5.445 4.906 5.445 11.41-11.475 23.478-33.151 23.478-33.151s2.649 2.902 6.705 6.935l.05.05c10.07 10.008 23.69 15.624 37.887 15.624z" fill="#a0c83d"/><g fill="#94b938"><g><path d="m60.437 373.046c-14.816-3.925-36.439-11.153-35.688-19.767-8.063.401-14.412 2.183-15.306 6.634-2.681 13.342 49.099 23.505 49.099 23.505s-26.075 45.874-14.215 52.546c3.98 2.239 9.513-1.468 15.11-7.377-7.382-4.792 1.345-26.164 8.097-40.081 3.026-6.236-.396-13.685-7.097-15.46z"/><path d="m77.925 333.81c-.361-7.985-.371-17.482.863-24.961-2.245-3.715-4.837-5.959-7.796-5.614-9.781 1.139-9.168 28.88-8.081 44.129.091.012.182.023.273.035 8.078 1.036 15.109-5.454 14.741-13.589z"/><path d="m88.712 403.237c-.051.077-.102.154-.153.231 10.805 10.746 31.598 29.525 38.877 22.821 2.229-2.053 2.177-5.567.756-9.787-6.456-3.926-13.63-10.108-19.445-15.583-5.963-5.616-15.523-4.518-20.035 2.318z"/></g><path d="m49.839 308.062c-.008-.063-.016.009-.023.064-.008.048-.015.107-.02.182l-.032.427c-.904 13.687 4.454 32.043 15.931 46.157 3.745 4.508 8.07 8.638 12.873 12.276l.031.023c1.427 1.081 1.707 3.114.626 4.541-.966 1.276-2.694 1.634-4.069.924-5.772-2.976-11.282-6.639-16.349-10.958-5.023-4.36-9.602-9.363-13.485-14.924-12.928-18.425-14.738-37.753-14.762-37.848l-.036-.403c-.011-.14-.023-.263-.032-.521.017-5.342 4.361-9.66 9.703-9.644 5.343.018 9.661 4.362 9.644 9.704z"/></g></g></g></svg>