<?xml version="1.0" encoding="UTF-8"?>
<svg xmlns="http://www.w3.org/2000/svg" xmlns:xlink="http://www.w3.org/1999/xlink" xmlns:svgjs="http://svgjs.com/svgjs" version="1.1" width="512" height="512" x="0" y="0" viewBox="0 0 24 24" style="enable-background:new 0 0 512 512" xml:space="preserve">
  <g>
    <path xmlns="http://www.w3.org/2000/svg" d="m19.091 19h-8.994c-1.297 0-2.447-.851-2.798-2.07l-3.04-10.301c-.108-.373-.467-.629-.877-.629h-2.382c-.553 0-1-.448-1-1s.447-1 1-1h2.382c1.297 0 2.446.851 2.797 2.07l.569 1.93h15.295c.624 0 1.216.297 1.583.795.364.494.469 1.112.288 1.696l-2.063 6.548c-.404 1.182-1.511 1.961-2.76 1.961zm2.953-9h.01z" fill="#ffffff" data-original="#000000" style=""/>
    <path xmlns="http://www.w3.org/2000/svg" d="m11 24c-1.103 0-2-.897-2-2s.897-2 2-2 2 .897 2 2-.897 2-2 2zm0-2.001v.001z" fill="#ffffff" data-original="#000000" style=""/>
    <path xmlns="http://www.w3.org/2000/svg" d="m18 24c-1.103 0-2-.897-2-2s.897-2 2-2 2 .897 2 2-.897 2-2 2zm0-2.001v.001z" fill="#ffffff" data-original="#000000" style=""/>
  </g>
</svg>
