<?xml version="1.0" encoding="UTF-8" standalone="no"?>
<!-- Created with Inkscape (http://www.inkscape.org/) -->

<svg
   width="210mm"
   height="297mm"
   viewBox="0 0 210 297"
   version="1.1"
   id="svg5"
   inkscape:version="1.1 (c68e22c387, 2021-05-23)"
   sodipodi:docname="019-pizza-13.svg"
   xmlns:inkscape="http://www.inkscape.org/namespaces/inkscape"
   xmlns:sodipodi="http://sodipodi.sourceforge.net/DTD/sodipodi-0.dtd"
   xmlns="http://www.w3.org/2000/svg"
   xmlns:svg="http://www.w3.org/2000/svg">
  <sodipodi:namedview
     id="namedview7"
     pagecolor="#ffffff"
     bordercolor="#666666"
     borderopacity="1.0"
     inkscape:pageshadow="2"
     inkscape:pageopacity="0.0"
     inkscape:pagecheckerboard="0"
     inkscape:document-units="mm"
     showgrid="false"
     inkscape:zoom="0.74118967"
     inkscape:cx="100.51408"
     inkscape:cy="561.93443"
     inkscape:window-width="1920"
     inkscape:window-height="1017"
     inkscape:window-x="-8"
     inkscape:window-y="-8"
     inkscape:window-maximized="1"
     inkscape:current-layer="layer1" />
  <defs
     id="defs2" />
  <g
     inkscape:label="Слой 1"
     inkscape:groupmode="layer"
     id="layer1">
    <g
       id="g77"
       transform="matrix(0,-0.26458333,0.26458333,0,-184.10726,152.69381)">
      <g
         id="g13">
	<g
   id="g11">
		<path
   d="m 256.004,96.005 c -83.648,0 -157.792,40.512 -204.544,102.72 l 82.08,131.392 c 7.968,-15.456 23.872,-26.112 42.464,-26.112 26.496,0 48,21.504 48,48 0,26.144 -20.896,47.296 -46.88,47.904 l 65.344,104.576 c 2.88,4.672 8.032,7.52 13.536,7.52 5.504,0 10.656,-2.848 13.568,-7.52 L 384.836,319.941 c -0.288,0 -0.544,0.064 -0.832,0.064 -26.496,0 -48,-21.504 -48,-48 0,-26.496 21.504,-48 48,-48 19.264,0 35.744,11.424 43.392,27.776 l 33.152,-53.056 C 413.796,136.517 339.652,96.005 256.004,96.005 Z m -16,160 c -26.496,0 -48,-21.504 -48,-48 0,-26.496 21.504,-48 48,-48 26.496,0 48,21.504 48,48 0,26.496 -21.504,48 -48,48 z"
   id="path9" />

	</g>

</g>
      <g
         id="g19">
	<g
   id="g17">
		<path
   d="m 507.044,100.517 c -140.736,-134.016 -361.312,-134.016 -502.048,0 -5.536,5.248 -6.592,13.664 -2.56,20.096 l 30.816,49.12 C 86.116,105.253 166.308,64.005 256.004,64.005 c 89.696,0 169.92,41.248 222.752,105.728 l 30.816,-49.12 c 4.032,-6.432 2.976,-14.848 -2.528,-20.096 z"
   id="path15" />

	</g>

</g>
      <g
         id="g21">
</g>
      <g
         id="g23">
</g>
      <g
         id="g25">
</g>
      <g
         id="g27">
</g>
      <g
         id="g29">
</g>
      <g
         id="g31">
</g>
      <g
         id="g33">
</g>
      <g
         id="g35">
</g>
      <g
         id="g37">
</g>
      <g
         id="g39">
</g>
      <g
         id="g41">
</g>
      <g
         id="g43">
</g>
      <g
         id="g45">
</g>
      <g
         id="g47">
</g>
      <g
         id="g49">
</g>
    </g>
  </g>
</svg>
