<svg id="Capa_1" enable-background="new 0 0 512 512" height="512" viewBox="0 0 512 512" width="512" xmlns="http://www.w3.org/2000/svg" xmlns:xlink="http://www.w3.org/1999/xlink"><linearGradient id="SVGID_1_" gradientUnits="userSpaceOnUse" x1="256" x2="256" y1="512" y2="0"><stop offset="0" stop-color="#fd5900"/><stop offset="1" stop-color="#ffde00"/></linearGradient><g><g><g><path d="m255.922 360c-8.284 0-15 6.716-15 15s6.716 15 15 15 15-6.716 15-15-6.716-15-15-15zm-60-150c-8.284 0-15 6.716-15 15s6.716 15 15 15 15-6.716 15-15-6.716-15-15-15zm40.606 64.393c-5.857-5.857-15.355-5.857-21.213 0-5.858 5.858-5.858 15.355 0 21.213l30 30c2.929 2.929 6.768 4.393 10.606 4.393 3.839 0 7.678-1.465 10.606-4.393 5.858-5.858 5.858-15.355 0-21.213zm-70.606-124.393c-8.284 0-15 6.716-15 15s6.716 15 15 15 15-6.716 15-15-6.716-15-15-15zm299.34-70.381c-57.692-51.343-132.036-79.619-209.34-79.619s-151.649 28.276-209.34 79.619c-14.214 12.65-18.342 33.911-10.034 51.711 13.224 28.296 40.737 26.343 45.156 25.88l160.611 346.104c2.458 5.297 7.767 8.686 13.606 8.686 5.84 0 11.148-3.389 13.606-8.686l160.609-346.099c18.996 1.994 36.769-7.908 44.858-25.241 13.625-29.098-6.284-49.286-9.732-52.355zm-209.34 381.746-146.925-316.612c40.862-35.314 92.969-54.753 146.925-54.753s106.063 19.439 146.925 54.753zm191.891-342.085c-4.293 9.198-16.049 10.903-23.966 3.964-46.515-40.784-106.153-63.244-167.925-63.244s-121.41 22.46-167.926 63.244c-2.337 2.049-17.19 10.551-24.267-4.608-2.741-5.873-1.591-12.701 2.798-16.606 52.191-46.449 119.452-72.03 189.395-72.03s137.204 25.581 189.395 72.03c.342.305 7.545 6.448 2.496 17.25zm-101.891 60.72c8.284 0 15-6.716 15-15s-6.716-15-15-15-15 6.716-15 15 6.716 15 15 15zm-135-15c0 24.813 20.187 45 45 45s45-20.187 45-45-20.187-45-45-45-45 20.187-45 45zm60 0c0 8.271-6.729 15-15 15s-15-6.729-15-15 6.729-15 15-15 15 6.729 15 15zm4.393 100.607c2.929 2.929 6.768 4.393 10.606 4.393s7.678-1.465 10.606-4.393l30-30c5.858-5.858 5.858-15.355 0-21.213-5.857-5.857-15.355-5.857-21.213 0l-30 30c-5.857 5.857-5.857 15.355.001 21.213z" fill="url(#SVGID_1_)"/></g></g></g></svg>