<svg id="Capa_1" enable-background="new 0 0 512.028 512.028" height="512" viewBox="0 0 512.028 512.028" width="512" xmlns="http://www.w3.org/2000/svg"><g><g><g clip-rule="evenodd" fill-rule="evenodd"><ellipse cx="260.675" cy="270.533" fill="#d56a4e" rx="36.989" ry="36.989" transform="matrix(.707 -.707 .707 .707 -114.946 263.562)"/><circle cx="200.139" cy="161.008" fill="#d56a4e" r="36.989"/><path d="m161.691 376.252 36.988-9.198v118.98c0 9.922 7.918 18.084 17.747 18.479h1.495c9.829-.396 17.747-8.558 17.747-18.479v-128.178l55.483-13.797v42.106c0 10.172 8.322 18.494 18.494 18.494s18.494-8.322 18.494-18.494v-51.304l44.06-10.957c19.633-64.157 4.074-136.773-46.677-187.524-50.245-50.245-121.922-65.996-185.605-47.253l-44.977 176.826c20.429 0 37.6 16.573 37.6 37.001 0 28.578-30.92 45.962-55.201 32.199l-16.855 66.265 64.218-15.969v59.897c0 10.172 8.323 18.494 18.495 18.494s18.494-8.323 18.494-18.494zm38.448-178.256c-20.428 0-36.989-16.561-36.989-36.989s16.56-36.989 36.989-36.989c20.428 0 36.989 16.56 36.989 36.989s-16.561 36.989-36.989 36.989zm60.536 109.526c-20.429 0-36.989-16.561-36.989-36.989s16.56-36.989 36.989-36.989c20.428 0 36.989 16.561 36.989 36.989s-16.561 36.989-36.989 36.989z" fill="#f9ee92"/><path d="m77.339 335.154c24.281 13.762 55.201-3.622 55.201-32.199 0-20.428-17.171-37.001-37.6-37.001z" fill="#d56a4e"/><path d="m77.339 335.154c6.858 3.887 14.245 5.289 21.315 4.657l17.176-67.527c-6.014-3.997-13.222-6.331-20.889-6.331z" fill="#ce3f29"/><path d="m372.199 323.904 79.831-19.852c21.217-157.206-102.675-294.87-256.179-296.538h-5.644c-9.912.108-19.94.783-30.054 2.057l-20.236 79.556c142.979-42.082 275.91 92.208 232.282 234.777z" fill="#ecc87d"/><path d="m94.94 265.953c7.667 0 14.875 2.334 20.889 6.331l47.951-188.516c-8.039 1.262-16.012 3.049-23.863 5.359z" fill="#ecc87d"/><path d="m183.132 7.687c-7.601.289-15.265.912-22.979 1.884l-20.236 79.556c7.851-2.311 15.824-4.095 23.862-5.357l14.457-56.837z" fill="#d99460"/><path d="m60.484 401.419 24.019-5.973 14.151-55.635c-7.071.632-14.458-.77-21.315-4.657zm138.195 62.115v22.5c0 9.922 7.918 18.084 17.747 18.479h1.495c9.829-.396 17.747-8.558 17.747-18.479v-22.5c0 9.921-7.918 18.084-17.747 18.479h-1.495c-9.829-.395-17.747-8.557-17.747-18.479zm92.472-99.869v22.5c0 10.172 8.322 18.494 18.494 18.494s18.494-8.322 18.494-18.494v-22.5c0 10.172-8.322 18.494-18.494 18.494s-18.494-8.322-18.494-18.494zm-166.449 59.182v22.5c0 10.172 8.323 18.494 18.495 18.494s18.494-8.323 18.494-18.494v-22.5c0 10.172-8.323 18.494-18.494 18.494-10.172 0-18.495-8.322-18.495-18.494z" fill="#ecc87d"/></g><g><path d="m338.334 94.121h-15v-15h15zm-30-15h-15v-15h15z" fill="#fff"/></g></g><g><path d="m228.168 486.034c0 6.062-4.932 10.994-10.994 10.994s-10.994-4.932-10.994-10.994v-128.574l-51.988 12.929v74.958c0 6.062-4.933 10.994-10.995 10.994s-10.994-4.932-10.994-10.994v-69.491l-61.357 15.258 11.607-45.633c4.245 1.322 8.618 2.002 13 2.002 7.735 0 15.484-2.059 22.54-6.169 13.806-8.044 22.049-22.384 22.049-38.359 0-21.358-15.33-39.244-35.702-43.522l18.51-72.774-14.537-3.697-58.189 228.761 67.078-16.68v50.304c0 14.333 11.661 25.994 25.994 25.994 14.334 0 25.995-11.661 25.995-25.994v-63.232l21.988-5.468v109.387c0 14.333 11.661 25.994 25.994 25.994s25.994-11.661 25.994-25.994v-30h-15v30zm-103.128-183.08c0 10.577-5.458 20.071-14.601 25.398-7.567 4.408-16.316 5.265-24.284 2.565l14.474-56.905c13.707 2.693 24.411 14.852 24.411 28.942z"/><path d="m228.168 426.034h15v15.001h-15z"/><path d="m383.51 80.072c-59.467-59.996-141.216-88.402-224.294-77.943l-5.071.639-42.135 165.654 14.537 3.697 19.572-76.948c62.135-16.72 128.491.902 174.1 46.511 46.188 46.188 63.616 113.264 45.996 175.981l-45.575 11.333v57.167c0 6.062-4.932 10.994-10.994 10.994s-10.994-4.932-10.994-10.994v-51.699l-70.483 17.528v59.042h15v-47.315l40.483-10.067v32.512c0 14.333 11.661 25.994 25.994 25.994s25.994-11.661 25.994-25.994v-45.44l123.144-30.622.681-5.046c11.198-82.984-16.486-164.987-75.955-224.984zm61.717 217.943-62.464 15.533c15.422-65.545-3.9-134.434-51.938-182.472-37.101-37.101-86.865-57.106-137.856-57.106-14.207 0-28.511 1.554-42.659 4.724l15.838-62.268c76.676-8.127 151.752 18.76 206.709 74.206 54.961 55.449 81.179 130.778 72.37 207.383z"/><path d="m200.139 116.519c-24.531 0-44.489 19.958-44.489 44.489s19.958 44.489 44.489 44.489 44.488-19.958 44.488-44.489-19.956-44.489-44.488-44.489zm0 73.977c-16.261 0-29.489-13.229-29.489-29.489s13.229-29.489 29.489-29.489 29.488 13.229 29.488 29.489-13.228 29.489-29.488 29.489z"/><path d="m216.185 270.533c0 24.531 19.958 44.489 44.489 44.489s44.489-19.958 44.489-44.489-19.958-44.489-44.489-44.489-44.489 19.957-44.489 44.489zm44.489-29.489c16.261 0 29.489 13.229 29.489 29.489s-13.229 29.489-29.489 29.489-29.489-13.229-29.489-29.489 13.229-29.489 29.489-29.489z"/></g></g></svg>