<svg id="Capa_1" enable-background="new 0 0 512 512" height="512" viewBox="0 0 512 512" width="512" xmlns="http://www.w3.org/2000/svg" xmlns:xlink="http://www.w3.org/1999/xlink"><linearGradient id="SVGID_1_" gradientUnits="userSpaceOnUse" x1="256" x2="256" y1="512" y2="0"><stop offset="0" stop-color="#ffe59a"/><stop offset="1" stop-color="#ffffd5"/></linearGradient><linearGradient id="SVGID_2_" gradientUnits="userSpaceOnUse" x1="256" x2="256" y1="407" y2="105"><stop offset="0" stop-color="#ffde00"/><stop offset="1" stop-color="#fd5900"/></linearGradient><g><g><circle cx="256" cy="256" fill="url(#SVGID_1_)" r="256"/></g><g><g><path d="m380.107 152.188c-34.335-30.43-78.418-47.188-124.134-47.188s-89.8 16.758-124.186 47.24c-8.308 7.486-10.713 20.055-5.643 30.976 7.56 16.051 28.036 20.189 41.974 8.067 24.412-21.278 55.612-32.988 87.855-32.988s63.443 11.71 87.855 32.988c13.865 12.058 34.415 7.981 41.922-7.954 5.275-10.807 2.727-23.595-5.643-31.141zm-124.134 77.165c4.905 0 8.89-3.981 8.89-8.882s-3.985-8.882-8.89-8.882-8.89 3.981-8.89 8.882c0 4.9 3.985 8.882 8.89 8.882zm76.178-24.669c-21.182-18.467-48.225-28.625-76.178-28.625s-54.996 10.157-76.17 28.607c-3.481 3.036-7.405 5.551-11.355 7.304-2.515 1.18-5.214 2.022-7.967 2.703l87.436 187.201c1.458 3.131 4.601 5.126 8.056 5.126s6.598-1.995 8.056-5.126l87.445-187.22c-2.896-.717-5.756-1.635-8.523-2.935-3.455-1.519-7.318-4.017-10.8-7.035zm-76.178-10.861c14.706 0 26.669 11.953 26.669 26.647s-11.963 26.647-26.669 26.647-26.669-11.953-26.669-26.647 11.963-26.647 26.669-26.647zm-53.338 35.53c-4.909 0-8.89-3.977-8.89-8.882s3.98-8.882 8.89-8.882c4.909 0 8.89 3.977 8.89 8.882s-3.981 8.882-8.89 8.882zm17.779 35.529c-4.909 0-8.89-3.977-8.89-8.882s3.98-8.882 8.89-8.882 8.89 3.977 8.89 8.882-3.98 8.882-8.89 8.882zm35.559 88.824c-4.909 0-8.89-3.977-8.89-8.882s3.98-8.882 8.89-8.882c4.909 0 8.89 3.977 8.89 8.882s-3.981 8.882-8.89 8.882zm6.285-38.132c-3.473 3.47-9.098 3.47-12.571 0l-17.779-17.765c-3.473-3.47-3.473-9.091 0-12.56 3.472-3.47 9.098-3.47 12.571 0l17.779 17.765c3.473 3.47 3.473 9.091 0 12.56zm35.559-53.294-17.779 17.765c-3.472 3.47-9.098 3.47-12.571 0-3.472-3.47-3.472-9.091 0-12.56l17.779-17.765c3.472-3.47 9.098-3.47 12.571 0s3.473 9.09 0 12.56zm11.494-32.927c-4.909 0-8.89-3.977-8.89-8.882s3.98-8.882 8.89-8.882c4.909 0 8.89 3.977 8.89 8.882s-3.981 8.882-8.89 8.882z" fill="url(#SVGID_2_)"/></g></g></g></svg>