<svg id="Capa_1" enable-background="new 0 0 511.655 511.655" height="512" viewBox="0 0 511.655 511.655" width="512" xmlns="http://www.w3.org/2000/svg"><g><g><g><path d="m348.731 162.38-202.611-123.531-142.429 404.77c-7.763 22.062-2.708 42.03 9.804 54.542l207.884-187.883 127.559-147.559z" fill="#faf0ba"/><path d="m13.495 498.16c12.511 12.512 32.479 17.567 54.541 9.804l159.366-56.077v27.746c0 17.627 14.29 31.917 31.917 31.917 17.248 0 31.292-13.684 31.888-30.787v-54.007c0-17.491 14.179-31.671 31.671-31.671h.35c17.491 0 31.671 14.18 31.671 31.671v53.229c0 17.491 14.179 31.671 31.671 31.671 17.491 0 31.671-14.18 31.671-31.671v-95.249l54.565-19.2-123.868-202.818z" fill="#f3d48d"/></g><path d="m318.001 185.896c9.798-9.798 16.424-21.555 19.925-34.007l-128.458-78.32c-.653.609-1.314 1.207-1.95 1.844-30.509 30.509-30.509 79.974 0 110.483s79.974 30.509 110.483 0z" fill="#745179"/><path d="m99.288 496.968 43.223-15.209c5.332-14.732 5.242-31.454-1.569-46.925l-11.372-26.312c-1.104-2.507-4.113-3.527-6.525-2.229-28.712 15.463-41.161 50.661-27.795 81.022z" fill="#00ec89"/><path d="m251.931 379.016-41.08-1.558c-2.02-.077-3.596-1.776-3.519-3.797 1.246-32.835 28.874-58.444 61.709-57.199l41.08 1.558c2.02.077 3.596 1.776 3.519 3.797-1.245 32.835-28.873 58.444-61.709 57.199z" fill="#009398"/><path d="m104.953 214.663c-4.982-4.982-10.474-9.139-16.302-12.491l-50.987 144.9c23.792 3.697 48.96-3.597 67.289-21.927 30.509-30.509 30.509-79.973 0-110.482z" fill="#c5344e"/></g><g><path d="m187.241 3.818c-15.757-8.542-35.46-2.248-43.345 13.848-.094.191-.187.381-.28.572-7.463 15.235-1.49 33.567 13.422 41.655 62.347 33.817 119.12 76.325 168.76 125.965l33.14-13.14 11.897-31.897c-54-53.998-115.763-100.232-183.594-137.003z" fill="#e7be86"/><path d="m370.834 140.821-45.037 45.037c49.64 49.641 92.148 106.413 125.965 168.761 8.088 14.912 26.421 20.885 41.655 13.422.191-.093.381-.187.572-.28 16.096-7.885 22.389-27.588 13.848-43.346-36.771-67.831-83.004-129.595-137.003-183.594z" fill="#d2a869"/></g></g></svg>