<?xml version="1.0" encoding="iso-8859-1"?>
<!-- Generator: Adobe Illustrator 21.0.0, SVG Export Plug-In . SVG Version: 6.00 Build 0)  -->
<svg version="1.1" id="Capa_1" xmlns="http://www.w3.org/2000/svg" xmlns:xlink="http://www.w3.org/1999/xlink" x="0px" y="0px"
	 viewBox="0 0 512.001 512.001" style="enable-background:new 0 0 512.001 512.001;" xml:space="preserve">
<g>
	<g>
		<path d="M394.527,240.233c-19.998,4.039-34.441,21.642-34.441,42.151c0,23.714,19.294,43.008,43.009,43.008
			c12.308,0,23.974-5.262,32.144-14.447L394.527,240.233z"/>
	</g>
</g>
<g>
	<g>
		<path d="M261.103,145.794c-10.58,0-19.188,8.608-19.188,19.188c0,10.581,8.608,19.188,19.188,19.188
			c10.58,0,19.188-8.607,19.188-19.188C280.291,154.401,271.684,145.794,261.103,145.794z"/>
	</g>
</g>
<g>
	<g>
		<path d="M485.976,399.065c-73.134,33.195-151.499,49.799-229.747,49.799c-78.599,0-157.079-16.74-230.118-50.216L2.316,439.872
			l13.029,7.522c73.278,42.303,156.346,64.607,240.487,64.607c1.309,0,2.623-0.005,3.932-0.017
			c83.004-0.686,164.91-22.899,236.863-64.237l13.057-7.502L485.976,399.065z"/>
	</g>
</g>
<g>
	<g>
		<path d="M450.718,337.826c-13.17,11.315-30.007,17.656-47.621,17.656c-40.307,0-73.1-32.792-73.1-73.099
			c0-31.504,20.072-58.976,49.05-69.038L256.21,0L132.96,213.53c28.694,10.21,48.525,37.54,48.525,68.853
			c0,40.307-32.792,73.099-73.099,73.099c-17.479,0-34.198-6.238-47.322-17.39l-19.837,34.366
			c136.334,61.596,292.505,61.74,429.657,0.394L450.718,337.826z M261.103,115.703c27.172,0,49.278,22.106,49.278,49.278
			c0,27.172-22.105,49.278-49.278,49.278c-27.172,0-49.278-22.105-49.278-49.278C211.825,137.81,233.932,115.703,261.103,115.703z
			 M303.892,253.279v29.585h-29.585v-29.585H303.892z M224.05,234.863l8.491,28.34l-28.34,8.492l-8.491-28.34L224.05,234.863z
			 M190.437,388.796l-10.037-27.83l27.83-10.037l10.037,27.831L190.437,388.796z M263.289,354.382l-44.5-40.515l20.257-22.251
			l44.5,40.515L263.289,354.382z M318.694,388.08l-28.502-7.933l7.933-28.502l28.502,7.933L318.694,388.08z"/>
	</g>
</g>
<g>
	<g>
		<path d="M117.484,240.343l-40.943,70.933c8.155,8.979,19.684,14.116,31.844,14.116c23.715,0,43.009-19.294,43.009-43.009
			C151.394,262.056,137.207,244.583,117.484,240.343z"/>
	</g>
</g>
<g>
</g>
<g>
</g>
<g>
</g>
<g>
</g>
<g>
</g>
<g>
</g>
<g>
</g>
<g>
</g>
<g>
</g>
<g>
</g>
<g>
</g>
<g>
</g>
<g>
</g>
<g>
</g>
<g>
</g>
</svg>
