<?xml version="1.0" encoding="iso-8859-1"?>
<!-- Generator: Adobe Illustrator 19.0.0, SVG Export Plug-In . SVG Version: 6.00 Build 0)  -->
<svg version="1.1" id="Capa_1" xmlns="http://www.w3.org/2000/svg" xmlns:xlink="http://www.w3.org/1999/xlink" x="0px" y="0px"
	 viewBox="0 0 464 464" style="enable-background:new 0 0 464 464;" xml:space="preserve">
<path style="fill:#FDBD40;" d="M272,0L80,224h48v161.312C100.408,389.76,80,405.368,80,424c0,22.088,28.656,40,64,40
	s64-17.912,64-40c0-18.632-20.408-34.24-48-38.688V224h24v80c0,8.837,7.163,16,16,16s16-7.163,16-16v-80h168
	C384,142.16,326.92,52.32,272,0z"/>
<g>
	<circle style="fill:#FFF69A;" cx="200" cy="176" r="24"/>
	<circle style="fill:#FFF69A;" cx="272" cy="72" r="24"/>
</g>
<g>
	<path style="fill:#E9686A;" d="M320,144h32v16h-32V144z"/>
	<path style="fill:#E9686A;" d="M234.346,125.662l11.314-11.314l32.001,32.001l-11.314,11.314L234.346,125.662z"/>
	<path style="fill:#E9686A;" d="M360,184h24v16h-24V184z"/>
	<path style="fill:#E9686A;" d="M250.347,218.343l24.002-24.002l11.314,11.314l-24.002,24.002L250.347,218.343z"/>
	<path style="fill:#E9686A;" d="M144,440c-12.32,0.534-24.496-2.825-34.8-9.6c-3.693-2.425-4.721-7.385-2.295-11.078
		c2.425-3.693,7.385-4.72,11.078-2.295c0.267,0.176,0.524,0.367,0.769,0.574c7.547,4.704,16.372,6.94,25.248,6.4
		c8.876,0.54,17.701-1.696,25.248-6.4c3.693-2.425,8.653-1.398,11.078,2.295c2.222,3.384,1.567,7.894-1.526,10.505
		C168.496,437.175,156.32,440.534,144,440z"/>
</g>
<g>
</g>
<g>
</g>
<g>
</g>
<g>
</g>
<g>
</g>
<g>
</g>
<g>
</g>
<g>
</g>
<g>
</g>
<g>
</g>
<g>
</g>
<g>
</g>
<g>
</g>
<g>
</g>
<g>
</g>
</svg>
