<svg id="Capa_1" enable-background="new 0 0 512.001 512.001" height="512" viewBox="0 0 512.001 512.001" width="512" xmlns="http://www.w3.org/2000/svg"><g><path d="m508.994 326.809-241-320.82c-5.991-7.974-17.984-7.986-23.983-.003l-241 320.62c-4.876 6.487-3.709 15.676 2.635 20.738 51.289 40.923 111.986 68.719 176.1 80.757 3.828 20.957 22.209 36.898 44.255 36.898 19.63 0 36.354-12.639 42.489-30.203 10.868-.331 21.736-1.092 32.511-2.289v34.492c0 24.813 20.187 45 45 45s45-20.187 45-45v-55.229c41.7-14.861 80.47-36.438 115.346-64.219 6.35-5.059 7.523-14.251 2.647-20.742zm-206.056-224.354 53.179 70.792c-6.196 3.097-13.071 4.751-20.116 4.751-24.813 0-45-20.187-45-45-.001-11.503 4.331-22.328 11.937-30.543zm-121.937 77.543c0 16.542-13.458 30-30 30-6.73 0-13.049-2.176-18.202-6.131l36.057-47.969c7.488 5.563 12.145 14.443 12.145 24.1zm-109.104 104.891c32.723 23.868 70.002 41.318 109.104 51.008v61.491c-52.259-10.76-101.898-32.869-145.082-64.634zm199.103 119.808v-60.051c10.052-.475 20.076-1.431 30-2.859v60.514c-9.932 1.194-19.959 1.999-30 2.396zm90 62.301c0 8.271-6.729 15-15 15s-15-6.729-15-15v-143.04c0-9.506-8.737-16.597-18.007-14.695-18.599 3.806-37.739 5.735-56.893 5.735-8.58 0-15.101 6.878-15.101 15v90c0 8.271-6.729 15-15 15s-15-6.729-15-15v-96.08c0-7.121-5.006-13.26-11.981-14.693-39.123-8.037-76.597-24.655-109.111-48.297l24.891-33.114c10.319 7.792 23.032 12.185 36.202 12.185 33.084 0 60-26.916 60-60 0-19.237-9.237-36.948-24.119-48.082l69.115-91.949 28.748 38.27c-15.051 14.051-23.744 33.721-23.744 54.76 0 41.355 33.645 75 75 75 13.586 0 26.798-3.681 38.313-10.527l47.774 63.597c-16.284 11.839-33.772 21.919-52.144 30.027-5.436 2.399-8.943 7.781-8.943 13.723zm30-87.256v-65.319c17.207-8.254 33.637-18.113 49.093-29.385l35.988 47.907c-26.305 19.344-54.817 35.012-85.081 46.797z"/><circle cx="256" cy="254.998" r="15"/></g></svg>