<svg id="Capa_1" enable-background="new 0 0 508.441 508.441" height="512" viewBox="0 0 508.441 508.441" width="512" xmlns="http://www.w3.org/2000/svg"><g><path d="m248.632 90.913v136.66l118.546-68.442c-27.03-37.851-69.732-63.77-118.546-68.218zm43.308 91.084-28.979-7.764 10.98-40.98 28.979 7.764z"/><path d="m366.618 350.076-117.986-68.119v135.57c48.482-4.417 90.929-30.018 117.986-67.451zm-69.592 20.751-30-30 21.213-21.213 30 30z"/><path d="m218.632 90.913c-49.55 4.515-92.796 31.159-119.751 69.944l119.751 69.138zm-39.606 97.914-30-30 21.213-21.213 30 30z"/><path d="m248.632 60.796c59.891 4.602 112.244 36.525 144.611 83.287l52.798-30.483c-9.338-14.041-20.137-27.259-32.332-39.455-44.549-44.55-102.696-70.545-165.077-74.145z"/><path d="m460.711 369.76c18.035-35.35 27.591-74.709 27.591-115.54 0-40.507-9.398-79.568-27.156-114.701l-52.774 30.469c12.337 25.489 19.26 54.067 19.26 84.232 0 30.501-7.085 59.376-19.681 85.079z"/><path d="m218.632 417.528v-137.994l-119.211 68.827c26.991 38.365 69.992 64.682 119.211 69.167zm-43.306-91.085 28.978 7.766-10.981 40.98-28.978-7.766z"/><path d="m72.821 145.812c32.265-47.708 85.181-80.358 145.811-85.016v-60.796c-40.264 2.367-79.443 14.229-114.134 34.677-33.958 20.016-62.885 47.764-84.359 80.719z"/><path d="m392.704 365.137c-32.408 46.338-84.513 77.933-144.071 82.509v60.796c62.38-3.6 120.528-29.595 165.077-74.144 11.967-11.968 22.595-24.917 31.812-38.666z"/><path d="m218.632 447.645c-60.298-4.633-112.958-36.957-145.271-84.238l-52.71 30.432c21.421 32.608 50.161 60.07 83.847 79.925 34.691 20.448 73.87 32.309 114.134 34.677z"/><path d="m397.632 254.22c0-24.707-5.502-48.148-15.329-69.181l-120.769 69.726 120.368 69.494c10.08-21.251 15.73-44.996 15.73-70.039zm-72.3 14.384-7.764-28.979 40.98-10.98 7.764 28.979z"/></g></svg>