<svg id="Layer_1" enable-background="new 0 0 511.943 511.943" height="512" viewBox="0 0 511.943 511.943" width="512" xmlns="http://www.w3.org/2000/svg"><path d="m441.503 423.72-171.734-414.517c-5.013-12.273-22.585-12.268-27.595 0l-171.734 414.517c-4.956 11.968-4.732 25.602.607 37.395 5.336 11.813 15.436 20.981 27.79 25.181 50.104 16.725 104.518 25.354 157.135 25.647 52.617-.293 107.03-8.922 157.135-25.647 12.354-4.2 22.454-13.368 27.79-25.181 5.339-11.793 5.562-25.427.606-37.395zm-102.398-168.726 22.554 54.451c-19.736 23.513-58.586 9.457-58.6-21.373-.097-19.311 16.823-34.815 36.046-33.078zm-134.217-77.682c11.762 5.182 19.972 17.026 19.972 30.43.449 22.938-24.244 39.668-45.365 30.884zm-36.765 89.061c7.435 2.986 15.424 4.568 23.538 4.568 68.979-1.086 87.131-93.896 24.821-121.319l39.489-95.334 70.947 171.282c-30.434 4.528-53.859 30.829-53.859 62.504-.242 51.552 59.744 81.591 100.79 50.797l9.886 23.867c-81.727 30.376-173.8 30.376-255.526 0zm245.444 182.369c-1.932 4.276-5.591 7.593-10.056 9.13-46.326 15.451-97.334 23.772-147.539 24.07-50.205-.298-101.213-8.619-147.539-24.07-4.465-1.537-8.124-4.854-10.046-9.106-1.944-4.296-2.024-9.233-.229-13.568l18.49-44.802c43.675 16.106 91.442 24.765 139.093 25.132h.462c47.647-.367 95.412-9.024 139.093-25.132l18.477 44.77c1.808 4.366 1.728 9.304-.206 13.576z"/></svg>