<svg id="Capa_1" enable-background="new 0 0 511.639 511.639" height="512" viewBox="0 0 511.639 511.639" width="512" xmlns="http://www.w3.org/2000/svg"><g><g><path d="m487.734 235.772-133.396-73.213c-4.84-2.655-10.919-.886-13.577 3.956-2.657 4.842-.886 10.92 3.956 13.577l130.925 71.848c4.058 1.941 4.967 5.733 2.422 7.426l-117.594 64.534c-3.19-11.974-9.57-22.916-18.687-31.723-12.91-12.473-29.907-19.342-47.862-19.342-37.992 0-68.9 30.908-68.9 68.899 0 17.411 6.593 33.973 18.12 46.554l-105.052 57.651c-31.604-57.918-48.259-123.646-48.259-189.615s16.657-131.707 48.257-189.622l129.646 71.145c4.841 2.656 10.92.885 13.577-3.956 2.657-4.842.886-10.92-3.956-13.577l-130.559-71.647c4.676-17.577-3.84-36.446-20.049-44.63-17.993-9.083-41.067-2.336-51.212 15.18-41.539 71.806-63.494 153.796-63.494 237.107 0 83.323 21.956 165.311 63.495 237.099 9.959 17.221 33.954 22.99 51.141 14.033 15.594-8.114 23.908-26.226 19.862-43.341l338.774-185.905c16.494-8.748 20.501-32.451 2.422-42.438zm-242.714 105.962c0-26.963 21.937-48.899 48.9-48.899 24.403 0 44.567 17.62 48.279 41.091l-80.789 44.336c-10.356-9.227-16.39-22.491-16.39-36.528zm-127.582 147.982c-11.227 5.853-20.43.295-26.169-9.056-40.983-66.771-59.229-145.587-59.229-224.336 0-79.468 20.854-157.677 60.313-226.238 6.372-7.977 15.026-13.424 25.379-8.194 9.548 4.82 13.204 16.962 7.825 26.26-36.875 62.403-55.729 135.868-55.729 208.171 0 72.687 19.254 145.066 55.637 208.009 4.732 9.143 1.093 20.64-8.027 25.384z"/><path d="m156.953 303.855c-3.906-3.903-10.237-3.903-14.142 0-3.905 3.905-3.906 10.237 0 14.143l23.635 23.636c1.953 1.952 4.512 2.929 7.071 2.929s5.119-.977 7.071-2.929c3.905-3.905 3.906-10.237 0-14.143z"/><path d="m310.016 239.924c3.851 3.853 10.289 3.853 14.142.001l20.221-20.218c3.906-3.904 3.906-10.236.001-14.142-3.902-3.905-10.235-3.905-14.142-.001l-20.221 20.218c-3.906 3.905-3.906 10.237-.001 14.142z"/><path d="m302.799 154.574c3.489 8.505 16.127 7.848 18.8-.92 2.635-8.644-7.143-16.079-14.789-11.416-4.136 2.522-5.874 7.86-4.011 12.336z"/><path d="m225.883 197.039c0-24.166-19.661-43.827-43.827-43.827s-43.828 19.661-43.828 43.827c0 24.167 19.661 43.828 43.828 43.828s43.827-19.661 43.827-43.828zm-43.828 23.829c-13.139 0-23.828-10.689-23.828-23.828s10.689-23.827 23.828-23.827c13.138 0 23.827 10.688 23.827 23.827s-10.688 23.828-23.827 23.828z"/></g></g></svg>