<svg height="512pt" viewBox="0 0 512.00005 512" width="512pt" xmlns="http://www.w3.org/2000/svg"><path d="m506.089844 256.671875c-5.191406-9.75-17.304688-13.441406-27.054688-8.253906-9.75 5.191406-13.445312 17.304687-8.253906 27.054687 1.898438 3.5625 1.1875 6.832032.597656 8.460938-.601562 1.660156-2.183594 4.675781-6.027344 6.234375l-26.421874 10.726562c-24.984376-52.457031-59.519532-98.910156-102.746094-138.160156-43.320313-39.332031-93.113282-69.378906-148.09375-89.402344l9.234375-26.242187c1.3125-3.730469 4.132812-5.460938 5.699219-6.160156 1.597656-.714844 4.84375-1.679688 8.625-.117188 55.5625 22.972656 106.257812 55.0625 150.667968 95.386719 23.695313 21.511719 45.480469 45.347656 64.757813 70.84375 6.664062 8.8125 19.203125 10.554687 28.015625 3.890625 8.8125-6.660156 10.554687-19.203125 3.890625-28.015625-20.769531-27.472657-44.246094-53.152344-69.773438-76.332031-47.839843-43.433594-102.4375-78-162.28125-102.738282-12.863281-5.316406-27.523437-5.113281-40.222656.558594-12.640625 5.648438-22.523437 16.367188-27.113281 29.402344l-158.453125 450.222656c-2.601563 7.382812-.652344 15.605469 4.980469 21.035156l1.367187 1.320313c3.800781 3.664062 8.800781 5.601562 13.886719 5.601562 2.53125 0 5.085937-.480469 7.519531-1.46875l61.078125-24.792969c6.164062-.976562 9.035156 2.207032 9.035156 8.261719l.101563.007813c1.007812 10.101562 9.53125 17.992187 19.898437 17.992187 11.046875 0 20-8.953125 20-20v-13c0-7.242187 3.863282-13.566406 9.628906-17.078125l5.957032-2.417968c1.421875-.320313 2.898437-.503907 4.417968-.503907 11.046876 0 20 8.953125 20 20l.046876-.054687c.496093 10.601562 9.226562 19.054687 19.953124 19.054687 11.046876 0 20-8.953125 20-20v-30c0-11.046875 8.953126-20.003906 20-20.003906 11.046876 0 20 8.957031 20 20.003906v44c0 11.046875 8.957032 20 20.003907 20s20-8.953125 20-20v-77.003906c0-11.046875 8.953125-20 20-20s20 8.953125 20 20v20c0 11.046875 8.953125 20.003906 20 20.003906s20.003906-8.957031 20.003906-20.003906v-53c0-8.632813 5.480469-15.96875 13.144531-18.769531l-.007812-.160156 88.246094-35.824219c13.285156-5.394531 23.707031-16.203125 28.585937-29.660157 4.863281-13.40625 3.808594-28.3125-2.894531-40.898437zm-331.28125-145.605469c9.355468 3.417969 18.550781 7.15625 27.570312 11.207032-5.214844 6.113281-8.371094 14.039062-8.371094 22.703124 0 19.332032 15.667969 35.003907 35 35.003907 15.632813 0 28.867188-10.253907 33.359376-24.398438 16.433593 11.042969 32.097656 23.304688 46.925781 36.769531 38.765625 35.195313 69.847656 76.746094 92.503906 123.617188l-133.363281 54.140625c-3.34375-15.503906-17.214844-27.125-33.828125-27.125-19.109375 0-34.597657 15.378906-34.597657 34.347656 0 6.761719 1.972657 13.058594 5.371094 18.371094l-152.546875 61.925781zm136.203125 190.417969c0-11.324219 8.953125-20.503906 20-20.503906s20 9.179687 20 20.503906c0 11.320313-8.953125 20.5-20 20.5s-20-9.179687-20-20.5zm-152.007813 54.5c0 11.046875-8.953125 20-20 20s-20-8.953125-20-20 8.953125-20 20-20 20 8.953125 20 20zm92.003906-128.003906c0-11.046875 8.953126-20 20-20 11.046876 0 20.003907 8.953125 20.003907 20s-8.957031 20-20.003907 20c-11.046874 0-20-8.953125-20-20zm-65.402343 71.699219c-19.109375 0-34.601563-15.378907-34.601563-34.347657 0-18.972656 15.492188-34.351562 34.601563-34.351562s34.597656 15.378906 34.597656 34.351562c0 18.96875-15.488281 34.347657-34.597656 34.347657zm0 0"/></svg>