<?xml version="1.0" encoding="iso-8859-1"?>
<!-- Generator: Adobe Illustrator 19.0.0, SVG Export Plug-In . SVG Version: 6.00 Build 0)  -->
<svg version="1.1" id="Capa_1" xmlns="http://www.w3.org/2000/svg" xmlns:xlink="http://www.w3.org/1999/xlink" x="0px" y="0px"
	 viewBox="0 0 512.009 512.009" style="enable-background:new 0 0 512.009 512.009;" xml:space="preserve">
<g>
	<g>
		<path d="M256.004,96.005c-83.648,0-157.792,40.512-204.544,102.72l82.08,131.392c7.968-15.456,23.872-26.112,42.464-26.112
			c26.496,0,48,21.504,48,48c0,26.144-20.896,47.296-46.88,47.904l65.344,104.576c2.88,4.672,8.032,7.52,13.536,7.52
			c5.504,0,10.656-2.848,13.568-7.52l115.264-184.544c-0.288,0-0.544,0.064-0.832,0.064c-26.496,0-48-21.504-48-48
			c0-26.496,21.504-48,48-48c19.264,0,35.744,11.424,43.392,27.776l33.152-53.056C413.796,136.517,339.652,96.005,256.004,96.005z
			 M240.004,256.005c-26.496,0-48-21.504-48-48c0-26.496,21.504-48,48-48c26.496,0,48,21.504,48,48
			C288.004,234.501,266.5,256.005,240.004,256.005z"/>
	</g>
</g>
<g>
	<g>
		<path d="M507.044,100.517c-140.736-134.016-361.312-134.016-502.048,0c-5.536,5.248-6.592,13.664-2.56,20.096l30.816,49.12
			c52.864-64.48,133.056-105.728,222.752-105.728s169.92,41.248,222.752,105.728l30.816-49.12
			C513.604,114.181,512.548,105.765,507.044,100.517z"/>
	</g>
</g>
<g>
</g>
<g>
</g>
<g>
</g>
<g>
</g>
<g>
</g>
<g>
</g>
<g>
</g>
<g>
</g>
<g>
</g>
<g>
</g>
<g>
</g>
<g>
</g>
<g>
</g>
<g>
</g>
<g>
</g>
</svg>
