<svg id="Layer_1" enable-background="new 0 0 128 128" height="512" viewBox="0 0 128 128" width="512" xmlns="http://www.w3.org/2000/svg"><g><path d="m109.1 108.5-43.9-11.7-10-2.7-23.6-6.3c.1-.4.2-.8.2-1.2 1.4-21.9 15-41.2 35.2-50 3.2-1.4 6.5-2.5 9.9-3.3 3.3-.8 6.8-1.3 10.2-1.5.4 0 .9-.1 1.3-.2l4.7 17.5 3.9 14.5z" fill="#fecd1a"/><path d="m93.2 25c.2 3-1.8 5.8-4.7 6.5-.4.1-.9.2-1.3.2-29.6 1.6-53.3 25.2-55.2 54.8-.2 3.4-3 6-6.4 6-.1 0-.3 0-.4 0-3.5-.2-6.2-3.3-6-6.8 2.2-36.1 31.1-64.7 67.2-66.7 3.6-.2 6.6 2.5 6.8 6z" fill="#fc852d"/><g fill="#fd3a69"><path d="m97 63.6c-3.4 3.2-8.8 3-12-.4s-3-8.8.4-12c1.6-1.5 3.6-2.3 5.8-2.3.6 0 1.3.1 1.9.2z"/><circle cx="56.1" cy="65.9" r="8.5"/><circle cx="85.6" cy="85.2" r="8.5"/></g><path d="m65.9 90.5v2.5c0 1.3-.2 2.5-.7 3.8l-10-2.7c2.1-2.3 5-3.6 8.1-3.6z" fill="#9d0191"/><path d="m76.9 33.3c.9 4.3-.9 8.7-4.4 11.2l-2 1.4-1.4-2c-1.5-2.1-2.3-4.8-2-7.4l4.4-1.7z" fill="#9d0191"/></g><path d="m24.5 62.4c-.9-.4-1.9.1-2.3 1-2.8 7.1-4.5 14.6-5 22.3-.3 4.6 3.4 8.7 8.1 8.7 3.1 0 5.8-1.7 7.2-4.4 95.4 25.6-19.4-5.2 75.9 20.3 1.3.3 2.5-.9 2.1-2.1l-20-75.6c2.8-1.5 4.6-4.5 4.4-7.7-.3-4.5-4.1-7.9-8.6-7.7-18.8 1-36.4 9.2-49.3 22.9-.7.7-.6 1.8.1 2.5s1.8.6 2.5-.1c12.2-13.1 29-20.9 46.9-21.8 2.5-.2 4.8 1.8 4.9 4.4.1 2.5-1.7 4.7-4.4 4.9-30.6 1.7-54.9 26-56.9 56.4-.2 2.3-2 4.4-5 4.4-2.5-.2-4.5-2.4-4.3-4.9.5-7.3 2.1-14.4 4.7-21.2.4-1-.1-2-1-2.3zm39.4 32.2c-.1 0-5.2-1.4-4.8-1.3 2.5-1.3 4.6-1 5-1-.1.5 0 1.2-.2 2.3zm27.8-43.9 3.3 12.2c-3.1 2.1-7.2 1.3-9.3-1.7-2.1-3.1-1.3-7.2 1.7-9.3 1.2-.9 2.7-1.3 4.3-1.2zm-16.4-15.2c0 5.5-4.3 7.9-4.5 8-.2-.4-2-2.2-2.1-5.8 2.2-.9 4.4-1.6 6.6-2.2zm-10 3.8c.6 4.3 2.9 6.4 3.7 7.7.6.8 1.7 1 2.4.4.6-.6 7.9-4.1 7.4-12.7 2.7-.6 5.5-.9 8.3-1.1l3.7 13.6c-5.6.2-10 5-9.8 10.6s5 10 10.6 9.8c1.5-.1 3-.5 4.3-1.2l10.6 39.6-39.2-10.5c.4-1.9.2-3.1.3-5 0-1-.8-1.7-1.7-1.8-1.2.2-6.4-.9-11.1 3.4l-21.1-5.7c1.3-20.2 13.4-38.2 31.6-47.1zm-36.8 15.2c-.8-.5-1.1-1.6-.6-2.4s1.1-1.7 1.6-2.5 1.6-1 2.4-.5 1 1.6.5 2.4-1 1.6-1.5 2.4c-.5.9-1.6 1.1-2.4.6zm37.8 11.4c0-5.6-4.6-10.2-10.2-10.2s-10.2 4.6-10.2 10.2 4.6 10.2 10.2 10.2 10.2-4.6 10.2-10.2zm-16.9 0c0-3.7 3-6.7 6.7-6.7s6.7 3 6.7 6.7-3 6.7-6.7 6.7-6.7-3-6.7-6.7zm36.2 29.5c5.6 0 10.2-4.6 10.2-10.2s-4.6-10.2-10.2-10.2-10.2 4.6-10.2 10.2c0 5.6 4.5 10.2 10.2 10.2zm0-16.9c3.7 0 6.7 3 6.7 6.7s-3 6.7-6.7 6.7-6.7-3-6.7-6.7c0-3.7 3-6.7 6.7-6.7z" fill="#212f68"/></svg>