<svg id="Capa_1" enable-background="new 0 0 496.888 496.888" height="50" viewBox="0 0 496.888 496.888" width="50" xmlns="http://www.w3.org/2000/svg"><g><path d="m408.812 269.828-87.36-140.1-138.77-108.61-14.28 46.41-93.699 237.04 10.661 35.535 19.298 35.536h21.98c8.32 0 15.06 6.75 15.06 15.06v84.19c0 6.08 2.46 11.58 6.44 15.56 3.99 3.98 9.49 6.44 15.56 6.44 12.16 0 22.01-9.85 22.01-22v-84.19c0-8.31 6.74-15.06 15.06-15.06h64.97c8.32 0 15.06 6.75 15.06 15.06v22.89c0 5.64 2.29 10.76 5.99 14.45 3.69 3.7 8.8 5.99 14.44 5.99 11.29 0 20.44-9.15 20.44-20.44v-22.89c0-8.31 6.74-15.06 15.06-15.06l88.61 1z" fill="#fee45a"/><path d="m408.812 269.828-87.36-140.1-91.237-71.408-47.533-37.202-14.28 46.41-93.699 237.04 11.255 17.511 18.704 53.56h3.088l85.381-215.998c8.991-22.745 38.132-28.951 55.776-12.015 18.293 17.56 34.691 37.148 48.83 58.459 32.517 49.005 52.157 105.827 56.796 164.311.146 1.857.425 3.676.818 5.452l69.991.79z" fill="#fedf30"/><path d="m342.861 246.352c-9.466 12.3-24.326 20.233-41.046 20.233-28.594 0-51.775-23.18-51.775-51.775 0-25.042 17.78-45.931 41.404-50.734l40.438-9.389 35.955 66.155z" fill="#f37c7c"/><path d="m331.883 154.688-40.438 9.389c-7.028 1.429-13.533 4.291-19.212 8.253 9.149 10.693 17.676 21.958 25.504 33.756 11.357 17.116 21.137 35.188 29.262 53.948 6.172-3.448 11.574-8.11 15.862-13.681l24.976-25.509z" fill="#ee6161"/><g id="XMLID_672_"><g><path d="m446.442 365.738c.85 11.64-8.32 21.58-19.99 21.58h-32c-10.47 0-19.16-8.06-19.98-18.49-4.92-62.02-25.42-121.58-60.07-173.8-36.55-55.09-86.77-98.87-146-127.5-9.59-4.63-13.82-16-9.69-25.81l12.42-29.43c4.43-10.51 16.75-15.26 27.04-10.34 71.54 34.23 132.17 86.89 176.23 153.28 41.93 63.18 66.54 135.38 72.04 210.51z" fill="#fdd79b"/></g></g><path d="m409.669 376.626c-1.921-62.185-19.523-122.665-51.612-176.496-33.849-56.79-81.898-102.942-139.677-134.398-9.355-5.088-13.032-16.648-8.433-26.248l12.096-25.192c-7.814-4.343-15.768-8.468-23.87-12.345-10.29-4.92-22.61-.17-27.04 10.34l-12.42 29.43c-4.13 9.81.1 21.18 9.69 25.81 59.23 28.63 109.45 72.41 146 127.5 34.65 52.22 55.15 111.78 60.07 173.8.82 10.43 9.51 18.49 19.98 18.49h18.689c-2.089-3.064-3.354-6.733-3.473-10.691z" fill="#fccd7f"/><g id="XMLID_689_"><g><path d="m108.902 354.668c0 7.44-1.51 14.53-4.24 20.97h-46.21c-5.68 0-9.58-5.73-7.49-11.01l23.741-60.061c20.021 7.83 34.199 27.311 34.199 50.101z" fill="#ee6161"/></g></g><circle cx="176.139" cy="291.557" fill="#f37c7c" r="31.831"/><circle cx="186.599" cy="171.092" fill="#ee6161" r="21.372"/><circle cx="296.451" cy="327.794" fill="#f37c7c" r="21.372"/><g><path d="m144.314 231.781c-2.27 0-4.513-1.026-5.988-2.976l-5.201-6.876c-2.499-3.304-1.846-8.008 1.458-10.506 3.305-2.501 8.007-1.846 10.506 1.457l5.201 6.876c2.499 3.304 1.846 8.008-1.458 10.506-1.354 1.025-2.943 1.519-4.518 1.519z" fill="#fec165"/></g><g><path d="m241.683 299.059c-2.557 0-5.048-1.308-6.451-3.663-2.12-3.559-.953-8.162 2.606-10.281l7.396-4.405c3.561-2.12 8.162-.952 10.282 2.605 2.12 3.559.953 8.162-2.606 10.281l-7.396 4.405c-1.203.717-2.526 1.058-3.831 1.058z" fill="#fec165"/></g><g><path d="m217.822 228.343c-1.595 0-3.203-.506-4.565-1.554l-5.397-4.148c-3.284-2.524-3.9-7.233-1.375-10.517 2.525-3.285 7.232-3.901 10.517-1.376l5.397 4.148c3.284 2.524 3.9 7.233 1.375 10.517-1.477 1.922-3.702 2.93-5.952 2.93z" fill="#fec165"/></g><g><path d="m160.667 370.531c-1.212 0-2.441-.294-3.58-.914-3.638-1.981-4.981-6.536-3-10.174l4.553-8.36c1.981-3.637 6.535-4.979 10.174-3 3.637 1.981 4.98 6.536 2.999 10.174l-4.553 8.36c-1.36 2.498-3.935 3.914-6.593 3.914z" fill="#fec165"/></g></g></svg>